<?xml version="1.0" encoding="iso-8859-1"?>
<!-- Generator: Adobe Illustrator 16.0.0, SVG Export Plug-In . SVG Version: 6.00 Build 0)  -->
<!DOCTYPE svg PUBLIC "-//W3C//DTD SVG 1.1//EN" "http://www.w3.org/Graphics/SVG/1.1/DTD/svg11.dtd">
<svg version="1.1" id="Capa_1" xmlns="http://www.w3.org/2000/svg" xmlns:xlink="http://www.w3.org/1999/xlink" x="0px" y="0px"
	 width="344.557px" height="344.557px" viewBox="0 0 344.557 344.557" style="enable-background:new 0 0 344.557 344.557;"
	 xml:space="preserve">
<g>
	<g>
		<path d="M278.548,168.912c7.956,7.955,12.853,18.359,11.629,31.824c-3.061,39.779-61.812,41.615-89.353,44.064
			c-12.852,0.611-25.704,1.223-37.943,1.223c-1.224-1.836-3.672-1.836-4.896,0c-11.628,0-23.256,0-34.884-0.611
			c-11.628-0.611-24.48,0-36.108-1.225c-3.06,0-5.508,0-8.568-0.611c-0.612-1.836-2.448-1.836-3.672-0.611
			c-16.524-4.285-23.256-18.973-19.584-43.453c7.344-10.404,16.524-16.523,28.152-17.748c1.224,0,0.612-2.447-0.612-2.447
			c-6.732-0.611-12.852,0-18.36,2.447c0-0.611,0-0.611,0-1.223c-3.06-14.077,0-25.705,6.732-35.497
			c10.404,9.18,22.644,15.912,36.108,20.808c3.672,1.224,4.896-3.672,2.448-6.12c-10.404-7.956-20.808-15.3-29.988-23.868
			c5.508-4.896,12.24-9.18,19.584-12.24c20.808-8.568,40.392-6.732,61.812-3.06c3.06,0.612,6.12-4.284,2.448-6.12
			c-14.688-6.732-33.66-7.344-52.632-3.06l-0.612-1.836c0.612,0,1.224-1.224,1.224-2.448c0.612-52.02,33.048-96.084,83.231-107.1
			c-12.239,19.584-11.016,43.452,5.509,61.812c-3.673,0-7.345,0.612-10.404,1.224c-3.672,0.612-2.448,6.12,1.224,6.12
			c8.568,0,17.748,1.224,26.316,3.06c-1.225,4.896-2.448,9.792-3.061,14.688c-0.611,2.448,3.672,3.06,4.284,0.612
			c1.225-4.896,2.448-9.18,4.284-13.464c8.568,3.06,16.524,7.344,23.256,14.688c15.3,17.136,12.24,37.944-1.224,53.856
			c-12.24-3.06-25.092-4.896-36.108-4.896c-3.672,0-3.672,5.508,0,6.12c19.584,2.448,48.348,7.956,66.096,22.032
			c-4.896,3.672-10.403,7.344-15.911,9.792c-1.837,1.223-0.612,4.283,1.836,3.672C266.309,176.256,272.429,172.584,278.548,168.912z
			"/>
		<path d="M264.473,243.576c-5.509,22.031-12.853,42.84-22.645,63.648c-3.672,7.344-9.792,22.643-15.912,28.152
			c-4.896,4.895-12.852,7.344-20.808,7.955c13.464-29.375,22.032-61.812,29.988-93.023
			C244.889,249.084,255.292,246.637,264.473,243.576z"/>
		<path d="M205.721,253.367c6.12-0.611,12.852-1.223,20.195-1.836c-7.956,30.602-17.748,61.201-24.479,92.412
			c-3.672,0.613-7.344,0.613-10.404,0.613c3.061-29.377,6.732-59.977,4.896-89.352c0-0.613,0-0.613-0.612-1.225
			C198.376,253.367,202.048,253.367,205.721,253.367z"/>
		<path d="M189.196,253.98c0,0,0,0.611,0,1.225c-4.284,28.764-3.06,59.363-3.06,88.738c-2.448,0-4.896,0-6.732,0
			c-4.284,0-7.956,0-11.627,0c1.224-29.375-0.612-60.588-4.284-89.963C172.061,254.592,180.628,254.592,189.196,253.98z"/>
		<path d="M156.761,254.592c0,29.377,3.06,60.588,7.956,89.965c-5.508,0-11.016-0.613-16.524-1.225v-0.611
			c-4.896-28.764-7.344-59.977-14.688-88.74C140.849,254.592,148.805,254.592,156.761,254.592z"/>
		<path d="M143.297,342.721c-5.508-0.613-10.404-1.836-15.3-4.285c-7.956-28.152-15.3-56.916-23.256-85.068
			c7.956,0.613,15.912,0.613,23.256,0.613C126.773,282.744,134.729,315.793,143.297,342.721z"/>
		<path d="M122.489,335.988c-9.792-5.508-18.36-14.076-25.092-28.152c-8.568-17.137-12.24-37.943-17.136-56.305
			c6.12,0.613,12.24,1.225,18.36,1.225C102.905,280.908,111.473,310.283,122.489,335.988z"/>
	</g>
</g>
<g>
</g>
<g>
</g>
<g>
</g>
<g>
</g>
<g>
</g>
<g>
</g>
<g>
</g>
<g>
</g>
<g>
</g>
<g>
</g>
<g>
</g>
<g>
</g>
<g>
</g>
<g>
</g>
<g>
</g>
</svg>
